<svg xmlns="http://www.w3.org/2000/svg" width="14" height="14" fill="none"><path fill="#B196FF" d="M13.303 7.085q.3.15.492.465.205.3.205.67v1.6q0 .381-.205.683-.192.3-.492.464v.862q0 .574-.41.984-.411.41-.998.41H6.303V11.83h5.592V6.852q0-1.011-.383-1.9a4.8 4.8 0 0 0-1.053-1.559A4.8 4.8 0 0 0 7 1.958a4.85 4.85 0 0 0-3.473 1.435 4.9 4.9 0 0 0-1.039 1.559 4.75 4.75 0 0 0-.383 1.9v4.28h-.71q-.574 0-.985-.41A1.39 1.39 0 0 1 0 9.722V8.33q0-.396.191-.711.192-.315.506-.492 0-1.477.52-2.68a6.6 6.6 0 0 1 1.394-2.05 6.25 6.25 0 0 1 2.024-1.313A6.35 6.35 0 0 1 7 .632q1.244 0 2.379.464 1.149.465 2.01 1.313a6.3 6.3 0 0 1 1.394 2.037q.52 1.19.52 2.639m-7.698.547q0-.301-.205-.506a.69.69 0 0 0-.505-.205.67.67 0 0 0-.493.205.69.69 0 0 0-.205.506q0 .287.205.492.205.204.493.205.3 0 .505-.205a.67.67 0 0 0 .205-.492m4.198 0q0-.301-.205-.506a.67.67 0 0 0-.493-.205q-.3 0-.505.205a.69.69 0 0 0-.205.506q0 .287.205.492a.69.69 0 0 0 .505.205.67.67 0 0 0 .493-.205.67.67 0 0 0 .205-.492m1.394-1.381a5.6 5.6 0 0 1-1.572-.246 5.69 5.69 0 0 1-2.557-1.627 5.9 5.9 0 0 1-.847-1.258q-.15.697-.451 1.34-.302.628-.752 1.162a6 6 0 0 1-.998.943 5.6 5.6 0 0 1-1.204.67q-.068-1.024.288-1.86.34-.833.957-1.421a4.6 4.6 0 0 1 1.394-.916 4.2 4.2 0 0 1 1.586-.315q.78 0 1.477.274.711.273 1.257.752.561.465.93 1.107.369.643.492 1.395"/></svg>