<svg xmlns="http://www.w3.org/2000/svg" width="184" height="136" fill="none"><circle cx="94" cy="64" r="64" fill="#333741"/><circle cx="28" cy="12" r="6" fill="#1F242F"/><circle cx="25" cy="112" r="8" fill="#1F242F"/><circle cx="172" cy="96" r="8" fill="#1F242F"/><circle cx="157" cy="9" r="5" fill="#1F242F"/><g filter="url(#a)"><path fill="url(#b)" d="m52.937 95.314 39.878-18.595a4 4 0 0 0 1.935-5.316L71.2 20.9l-15.948-5.805L22.625 30.31a4 4 0 0 0-1.934 5.315L47.62 93.38a4 4 0 0 0 5.316 1.935"/><path fill="#D0D5DD" d="M55.252 15.095 71.199 20.9l-10.876 5.072z"/></g><g filter="url(#c)"><path fill="url(#d)" d="M72 81.724h44a4 4 0 0 0 4-4V22l-12-12H72a4 4 0 0 0-4 4v63.724a4 4 0 0 0 4 4"/><path fill="#D0D5DD" d="m108 10 12 12h-12z"/></g><g filter="url(#e)"><path fill="url(#f)" d="m94.626 76.695 39.877 18.595a4 4 0 0 0 5.316-1.935l23.55-50.503-5.804-15.947-32.627-15.215a4 4 0 0 0-5.316 1.935L92.691 71.38a4 4 0 0 0 1.935 5.316"/><path fill="#D0D5DD" d="m157.564 26.905 5.805 15.947-10.876-5.071z"/></g><g filter="url(#g)"><path fill="#344054" fill-opacity=".4" d="M66 96c0-15.464 12.536-28 28-28s28 12.536 28 28-12.536 28-28 28-28-12.536-28-28"/><path stroke="#fff" stroke-linecap="round" stroke-linejoin="round" stroke-width="2" d="M96.334 94.833h-7m2.333 4.667h-2.333m9.333-9.333h-9.333m14-.234v12.134c0 1.96 0 2.94-.382 3.689a3.5 3.5 0 0 1-1.529 1.529c-.749.382-1.73.382-3.69.382h-7.466c-1.96 0-2.94 0-3.689-.382a3.5 3.5 0 0 1-1.53-1.529c-.381-.749-.381-1.729-.381-3.689V89.933c0-1.96 0-2.94.382-3.689a3.5 3.5 0 0 1 1.529-1.53c.749-.38 1.729-.38 3.689-.38h7.467c1.96 0 2.94 0 3.689.38a3.5 3.5 0 0 1 1.529 1.53c.382.749.382 1.73.382 3.69"/></g><defs><filter id="a" width="117.439" height="126.98" x="-1" y="10.024" color-interpolation-filters="sRGB" filterUnits="userSpaceOnUse"><feFlood flood-opacity="0" result="BackgroundImageFix"/><feColorMatrix in="SourceAlpha" result="hardAlpha" values="0 0 0 0 0 0 0 0 0 0 0 0 0 0 0 0 0 0 127 0"/><feMorphology in="SourceAlpha" radius="4" result="effect1_dropShadow_10551_64030"/><feOffset dy="8"/><feGaussianBlur stdDeviation="4"/><feComposite in2="hardAlpha" operator="out"/><feColorMatrix values="0 0 0 0 0.0627451 0 0 0 0 0.0941176 0 0 0 0 0.156863 0 0 0 0.03 0"/><feBlend in2="BackgroundImageFix" result="effect1_dropShadow_10551_64030"/><feColorMatrix in="SourceAlpha" result="hardAlpha" values="0 0 0 0 0 0 0 0 0 0 0 0 0 0 0 0 0 0 127 0"/><feMorphology in="SourceAlpha" radius="4" result="effect2_dropShadow_10551_64030"/><feOffset dy="20"/><feGaussianBlur stdDeviation="12"/><feComposite in2="hardAlpha" operator="out"/><feColorMatrix values="0 0 0 0 0.0627451 0 0 0 0 0.0941176 0 0 0 0 0.156863 0 0 0 0.08 0"/><feBlend in2="effect1_dropShadow_10551_64030" result="effect2_dropShadow_10551_64030"/><feBlend in="SourceGraphic" in2="effect2_dropShadow_10551_64030" result="shape"/></filter><filter id="c" width="92" height="111.724" x="48" y="10" color-interpolation-filters="sRGB" filterUnits="userSpaceOnUse"><feFlood flood-opacity="0" result="BackgroundImageFix"/><feColorMatrix in="SourceAlpha" result="hardAlpha" values="0 0 0 0 0 0 0 0 0 0 0 0 0 0 0 0 0 0 127 0"/><feMorphology in="SourceAlpha" radius="4" result="effect1_dropShadow_10551_64030"/><feOffset dy="8"/><feGaussianBlur stdDeviation="4"/><feComposite in2="hardAlpha" operator="out"/><feColorMatrix values="0 0 0 0 0.0627451 0 0 0 0 0.0941176 0 0 0 0 0.156863 0 0 0 0.03 0"/><feBlend in2="BackgroundImageFix" result="effect1_dropShadow_10551_64030"/><feColorMatrix in="SourceAlpha" result="hardAlpha" values="0 0 0 0 0 0 0 0 0 0 0 0 0 0 0 0 0 0 127 0"/><feMorphology in="SourceAlpha" radius="4" result="effect2_dropShadow_10551_64030"/><feOffset dy="20"/><feGaussianBlur stdDeviation="12"/><feComposite in2="hardAlpha" operator="out"/><feColorMatrix values="0 0 0 0 0.0627451 0 0 0 0 0.0941176 0 0 0 0 0.156863 0 0 0 0.08 0"/><feBlend in2="effect1_dropShadow_10551_64030" result="effect2_dropShadow_10551_64030"/><feBlend in="SourceGraphic" in2="effect2_dropShadow_10551_64030" result="shape"/></filter><filter id="e" width="117.439" height="126.98" x="71.001" y="10" color-interpolation-filters="sRGB" filterUnits="userSpaceOnUse"><feFlood flood-opacity="0" result="BackgroundImageFix"/><feColorMatrix in="SourceAlpha" result="hardAlpha" values="0 0 0 0 0 0 0 0 0 0 0 0 0 0 0 0 0 0 127 0"/><feMorphology in="SourceAlpha" radius="4" result="effect1_dropShadow_10551_64030"/><feOffset dy="8"/><feGaussianBlur stdDeviation="4"/><feComposite in2="hardAlpha" operator="out"/><feColorMatrix values="0 0 0 0 0.0627451 0 0 0 0 0.0941176 0 0 0 0 0.156863 0 0 0 0.03 0"/><feBlend in2="BackgroundImageFix" result="effect1_dropShadow_10551_64030"/><feColorMatrix in="SourceAlpha" result="hardAlpha" values="0 0 0 0 0 0 0 0 0 0 0 0 0 0 0 0 0 0 127 0"/><feMorphology in="SourceAlpha" radius="4" result="effect2_dropShadow_10551_64030"/><feOffset dy="20"/><feGaussianBlur stdDeviation="12"/><feComposite in2="hardAlpha" operator="out"/><feColorMatrix values="0 0 0 0 0.0627451 0 0 0 0 0.0941176 0 0 0 0 0.156863 0 0 0 0.08 0"/><feBlend in2="effect1_dropShadow_10551_64030" result="effect2_dropShadow_10551_64030"/><feBlend in="SourceGraphic" in2="effect2_dropShadow_10551_64030" result="shape"/></filter><filter id="g" width="72" height="72" x="58" y="60" color-interpolation-filters="sRGB" filterUnits="userSpaceOnUse"><feFlood flood-opacity="0" result="BackgroundImageFix"/><feGaussianBlur in="BackgroundImageFix" stdDeviation="4"/><feComposite in2="SourceAlpha" operator="in" result="effect1_backgroundBlur_10551_64030"/><feBlend in="SourceGraphic" in2="effect1_backgroundBlur_10551_64030" result="shape"/></filter><linearGradient id="b" x1="50.594" x2="18.815" y1="95.469" y2="38.137" gradientUnits="userSpaceOnUse"><stop stop-color="#E4E7EC"/><stop offset="1" stop-color="#F9FAFB"/></linearGradient><linearGradient id="d" x1="69.811" x2="65.239" y1="80.875" y2="15.484" gradientUnits="userSpaceOnUse"><stop stop-color="#E4E7EC"/><stop offset="1" stop-color="#F9FAFB"/></linearGradient><linearGradient id="f" x1="93.001" x2="116.492" y1="75" y2="13.803" gradientUnits="userSpaceOnUse"><stop stop-color="#E4E7EC"/><stop offset="1" stop-color="#F9FAFB"/></linearGradient></defs></svg>