<svg width="25" height="24" viewBox="0 0 25 24" fill="none" xmlns="http://www.w3.org/2000/svg">
<path d="M13.773 16.4548V19.0521C13.773 19.6202 14.094 20.1396 14.6022 20.3937L15.1814 20.6833C16.026 21.1056 17.0201 21.1056 17.8646 20.6833L18.4438 20.3937C18.952 20.1396 19.273 19.6202 19.273 19.0521V16.4548" stroke="white" stroke-width="1.5" stroke-linecap="round" stroke-linejoin="round"/>
<path fill-rule="evenodd" clip-rule="evenodd" d="M12.0916 15.6521L15.4445 17.2554C16.1265 17.5816 16.9195 17.5816 17.6015 17.2554L20.9544 15.6521C21.3018 15.486 21.523 15.1351 21.523 14.75C21.523 14.3649 21.3018 14.0141 20.9544 13.8479L17.6015 12.2446C16.9195 11.9185 16.1265 11.9185 15.4445 12.2446L12.0916 13.8479C11.7442 14.0141 11.5231 14.3649 11.5231 14.75C11.5231 15.1351 11.7442 15.486 12.0916 15.6521V15.6521Z" stroke="white" stroke-width="1.5" stroke-linecap="round" stroke-linejoin="round"/>
<path d="M21.523 14.7435V17" stroke="white" stroke-width="1.5" stroke-linecap="round" stroke-linejoin="round"/>
<path d="M12.523 10V5.00002" stroke="white" stroke-width="1.5" stroke-linecap="round" stroke-linejoin="round"/>
<path d="M8.02308 15.0203C6.98002 15.0229 5.95717 15.3082 5.06344 15.846C4.75904 16.0443 4.37083 16.0613 4.05031 15.8902C3.72979 15.7192 3.52774 15.3873 3.52302 15.024L3.5231 5.63501C3.51434 5.22721 3.67974 4.835 3.97785 4.55661C6.45997 2.31937 10.2858 2.51788 12.523 5.00001" stroke="white" stroke-width="1.5" stroke-linecap="round" stroke-linejoin="round"/>
<path d="M21.523 10.9997L21.5229 5.635C21.5317 5.22721 21.3663 4.835 21.0682 4.5566C18.5861 2.31937 14.7603 2.51788 12.523 5" stroke="white" stroke-width="1.5" stroke-linecap="round" stroke-linejoin="round"/>
</svg>
