<svg width="22" height="22" viewBox="0 0 22 22" fill="none" xmlns="http://www.w3.org/2000/svg">
<path d="M11 6.61816C12.0129 6.61816 12.8341 7.43932 12.8341 8.45226C12.8341 9.46521 12.0129 10.2864 11 10.2864C9.98705 10.2864 9.16589 9.46521 9.16589 8.45226C9.16589 7.43932 9.98705 6.61816 11 6.61816" stroke="#926BFF" stroke-linecap="round" stroke-linejoin="round"/>
<path d="M14.6682 13.751C14.5615 13.4827 14.3961 13.2417 14.184 13.0458V13.0458C13.8266 12.7136 13.3568 12.5288 12.8689 12.5286H9.13195C8.64378 12.5289 8.17374 12.7136 7.81599 13.0458V13.0458C7.60437 13.2421 7.43899 13.483 7.33179 13.751" stroke="#926BFF" stroke-linecap="round" stroke-linejoin="round"/>
<path opacity="0.8" fill-rule="evenodd" clip-rule="evenodd" d="M12.834 17.4194H16.5022C18.0216 17.4194 19.2533 16.1876 19.2533 14.6682V5.49773C19.2533 3.97831 18.0216 2.74658 16.5022 2.74658H5.49761C3.97819 2.74658 2.74646 3.97831 2.74646 5.49773V14.6682C2.74646 16.1876 3.97819 17.4194 5.49761 17.4194H9.1658L10.9999 19.2535L12.834 17.4194Z" stroke="white" stroke-linecap="round" stroke-linejoin="round"/>
</svg>
