<svg width="25" height="24" viewBox="0 0 25 24" fill="none" xmlns="http://www.w3.org/2000/svg">
<g opacity="0.7">
<path d="M3.47656 8V16C3.47656 17.105 5.71556 18 8.47656 18M3.47656 8C3.47656 9.10457 5.71514 10 8.47656 10C11.238 10 13.4766 9.10457 13.4766 8C13.4766 6.89543 11.238 6 8.47656 6C5.71514 6 3.47656 6.89543 3.47656 8ZM8.47656 14C5.71556 14 3.47656 13.105 3.47656 12M13.4766 8V10.5" stroke="#FFFFFF" stroke-width="1.5" stroke-linecap="round" stroke-linejoin="round"/>
<path d="M11.4766 15C11.4766 16.105 13.7146 17 16.4766 17C19.2386 17 21.4766 16.105 21.4766 15C21.4766 13.895 19.2386 13 16.4766 13C13.7146 13 11.4766 13.895 11.4766 15ZM11.4766 15V19M11.4766 19C11.4766 20.105 13.7146 21 16.4766 21C19.2386 21 21.4766 20.105 21.4766 19M21.4766 15V19C21.4766 20.105 19.2386 21 16.4766 21C13.7146 21 11.4766 20.105 11.4766 19" stroke="#FFFFFF" stroke-width="1.5" stroke-linecap="round" stroke-linejoin="round"/>
<path d="M19.4766 7V3M17.4766 5H21.4766" stroke="#926BFF" stroke-width="1.5" stroke-linecap="round" stroke-linejoin="round"/>
</g>
</svg>
