<svg width="22" height="22" viewBox="0 0 22 22" fill="none" xmlns="http://www.w3.org/2000/svg">
<path d="M7.2547 4.20372C7.97066 4.91968 7.97066 6.08048 7.2547 6.79645C6.53874 7.51241 5.37793 7.51241 4.66197 6.79645C3.94601 6.08049 3.94601 4.91968 4.66197 4.20372C5.37793 3.48776 6.53874 3.48776 7.2547 4.20372" stroke="#7b61ff" stroke-linecap="round" stroke-linejoin="round"/>
<path opacity="0.8" d="M11.2145 16.5H7.90808C6.578 16.5 5.5 15.2689 5.5 13.7509V13.7482C5.5 12.2302 6.578 10.9991 7.90808 10.9991H14.091C15.4211 10.9991 16.4991 9.768 16.4991 8.25V8.25C16.5 6.72925 15.4202 5.49817 14.0892 5.5L10.3125 5.50459" stroke="white" stroke-linecap="round" stroke-linejoin="round"/>
<path fill-rule="evenodd" clip-rule="evenodd" d="M14.9784 18.5021L17.6266 16.9355C17.9575 16.7393 17.9575 16.2599 17.6266 16.0647L14.9784 14.4981C14.6383 14.2964 14.2084 14.5421 14.2084 14.9372V18.063C14.2084 18.4581 14.6383 18.7037 14.9784 18.5021Z" stroke="#7b61ff" stroke-linecap="round" stroke-linejoin="round"/>
</svg>
