<svg xmlns="http://www.w3.org/2000/svg" width="33" height="32" fill="none"><rect width="23" height="23" x="1" y="5" stroke="#926BFF" stroke-linecap="round" stroke-linejoin="round" stroke-width="1.5" opacity=".3" rx="8"/><rect width="23" height="23" x="8" y="5" fill="#0E0E12" stroke="#926BFF" stroke-linecap="round" stroke-linejoin="round" stroke-width="1.5" rx="8"/><path fill="#926BFF" fill-rule="evenodd" d="M15.902 15.27a2.365 2.365 0 0 1 2.361-2.368c.743 0 1.228.272 1.544.628q.11.129.194.26.083-.132.194-.26c.316-.356.8-.628 1.543-.628A2.365 2.365 0 0 1 24.1 15.27c0 1.224-.697 2.4-1.498 3.376-.758.925-1.652 1.721-2.263 2.265l-.115.103a.333.333 0 0 1-.444 0l-.116-.103c-.61-.544-1.505-1.34-2.263-2.265-.8-.976-1.498-2.152-1.498-3.376" clip-rule="evenodd"/></svg>