<svg xmlns="http://www.w3.org/2000/svg" width="73" height="76" fill="none"><path fill="#fff" d="M4 .759h.772V21.31H4zm1.543 0h.772V21.31h-.772zm4.633 0h.771V21.31h-.771zm15.018 0h.771V21.31h-.771zm5.02 0h.772V21.31h-.771zm4.87 0h.77V21.31h-.77zm1.254 0h.771V21.31h-.771zm1.256 0h.772V21.31h-.772zm1.412 0h.772V21.31h-.772zm1.412 0h.772V21.31h-.772zm3.925 0h.772V21.31h-.772zm9.732 0h.772V21.31h-.772zm10.152 0h.771V21.31h-.771zm2.776 0h.772V21.31h-.772zm2.007 0h.771V21.31h-.771zm1.235 0h.772V21.31h-.772zm-54.975 0h.772V21.31h-.772zm-7.72 0h1.389V21.31h-1.39zm9.168 0h1.39V21.31h-1.39zm6.438 0h1.39V21.31h-1.39zm3.296 0h1.389V21.31h-1.39zm5.18 0h1.389V21.31h-1.39zm14.767 0h2.16V21.31H46.4zm2.823 0h1.698V21.31h-1.698zm2.978 0h1.389V21.31h-1.39zm3.938 0h2.316V21.31h-2.316zm4.536 0h2.316V21.31h-2.316zm-48.955 0h2.778V21.31h-2.778zm7.2 0h2.162V21.31H18.92zM5 39.557V27.794h4.4a5.4 5.4 0 0 1 2.156.357c.526.226.97.61 1.27 1.1.298.463.458 1.001.46 1.552.001.503-.14.995-.407 1.42-.3.469-.727.842-1.232 1.075a3.06 3.06 0 0 1 1.638 1.066c.385.513.586 1.14.572 1.782a3.45 3.45 0 0 1-.347 1.536 3 3 0 0 1-.864 1.096 3.6 3.6 0 0 1-1.284.582 7.8 7.8 0 0 1-1.89.197zm1.553-6.82h2.535c.496.02.991-.026 1.475-.136.353-.09.667-.296.89-.585.21-.3.315-.661.3-1.027a1.9 1.9 0 0 0-.28-1.03 1.42 1.42 0 0 0-.792-.612 6.7 6.7 0 0 0-1.784-.164H6.553zm0 5.433h2.919q.53.015 1.056-.056c.317-.051.621-.163.896-.328.252-.163.456-.39.592-.657.158-.304.238-.643.232-.986.011-.41-.106-.812-.335-1.15a1.77 1.77 0 0 0-.933-.683 5.8 5.8 0 0 0-1.715-.197H6.553zm9.571-4.341a6.4 6.4 0 0 1 1.568-4.587 5.33 5.33 0 0 1 4.048-1.656 5.6 5.6 0 0 1 2.927.779 5.08 5.08 0 0 1 1.987 2.17c.468.985.702 2.066.683 3.157a6.95 6.95 0 0 1-.72 3.202 4.92 4.92 0 0 1-2.039 2.136 5.8 5.8 0 0 1-2.847.726 5.53 5.53 0 0 1-2.958-.8 5.16 5.16 0 0 1-1.977-2.192 6.66 6.66 0 0 1-.672-2.935m1.6.024a4.72 4.72 0 0 0 1.147 3.351 3.75 3.75 0 0 0 2.86 1.224 3.74 3.74 0 0 0 2.874-1.237 5 5 0 0 0 1.132-3.507 6.04 6.04 0 0 0-.477-2.508 3.73 3.73 0 0 0-1.415-1.661 3.83 3.83 0 0 0-2.092-.59 3.96 3.96 0 0 0-2.836 1.136 5.08 5.08 0 0 0-1.192 3.79zm12.157 5.704V27.794h1.551V38.17h5.775v1.388zm9.812 0V27.794h8.48v1.389h-6.928v3.602h6.486v1.38h-6.486v4.004h7.199v1.388zm14.484 0V29.183h-3.864v-1.389h9.295v1.389h-3.88v10.374zm6.86-5.728a6.4 6.4 0 0 1 1.572-4.587 5.33 5.33 0 0 1 4.047-1.656 5.6 5.6 0 0 1 2.928.779 5.08 5.08 0 0 1 1.987 2.17c.468.985.702 2.066.683 3.157a6.95 6.95 0 0 1-.72 3.202 4.92 4.92 0 0 1-2.045 2.138 5.8 5.8 0 0 1-2.847.726 5.53 5.53 0 0 1-2.96-.802 5.16 5.16 0 0 1-1.973-2.192 6.66 6.66 0 0 1-.671-2.935m1.601.024a4.72 4.72 0 0 0 1.147 3.351 3.75 3.75 0 0 0 2.86 1.224 3.73 3.73 0 0 0 2.883-1.235 5 5 0 0 0 1.132-3.507 6 6 0 0 0-.491-2.508 3.73 3.73 0 0 0-1.416-1.661 3.83 3.83 0 0 0-2.092-.59 3.96 3.96 0 0 0-2.835 1.135 5.08 5.08 0 0 0-1.19 3.79z"/><g clip-path="url(#a)"><mask id="b" width="73" height="27" x="0" y="49" maskUnits="userSpaceOnUse" style="mask-type:luminance"><path fill="#fff" d="M72.679 49.759H.603v25.39h72.076z"/></mask><g fill="#fff" mask="url(#b)"><path fill-rule="evenodd" d="M35.137 54.503c-2.446 0-4.43 1.971-4.43 4.403v14.561a.45.45 0 0 1-.45.449.45.45 0 0 1-.452-.449V58.906c0-2.927 2.387-5.3 5.332-5.3l4.326.006c2.936.006 5.314 2.374 5.314 5.293v3.1c0 2.926-2.387 5.3-5.332 5.3h-6.112a.45.45 0 0 1-.45-.45.45.45 0 0 1 .45-.448h6.112c2.446 0 4.43-1.97 4.43-4.403v-3.1c0-2.423-1.975-4.39-4.413-4.395zM45.084 54.053a.45.45 0 0 1 .45-.449h1.877a2.447 2.447 0 0 1 2.454 2.44V66.92a.45.45 0 0 1-.451.449.45.45 0 0 1-.451-.449V56.044c0-.852-.695-1.543-1.552-1.543h-1.876a.45.45 0 0 1-.451-.448" clip-rule="evenodd"/><path d="m49.014 52.367-.85-.845a.535.535 0 0 1 0-.76l.85-.846a.544.544 0 0 1 .765 0l.85.846c.211.21.211.55 0 .76l-.85.845a.543.543 0 0 1-.765 0"/><path fill-rule="evenodd" d="M52.562 54.043a.45.45 0 0 1 .451-.449h1.86c1.078 0 2.11.425 2.872 1.182l4.352 4.326a.997.997 0 0 0 1.403 0l4.337-4.31a4.07 4.07 0 0 1 2.87-1.182h1.513c.25 0 .451.2.451.448a.45.45 0 0 1-.45.449h-1.514c-.837 0-1.64.33-2.232.92l-4.337 4.31c-.74.735-1.94.735-2.68 0l-4.351-4.327a3.17 3.17 0 0 0-2.233-.919h-1.86a.45.45 0 0 1-.452-.448" clip-rule="evenodd"/><path fill-rule="evenodd" d="M63.5 61.766a.997.997 0 0 0-1.403 0l-4.352 4.326a4.07 4.07 0 0 1-2.871 1.183h-1.86a.45.45 0 0 1-.452-.449.45.45 0 0 1 .451-.448h1.86c.838 0 1.642-.331 2.234-.92l4.352-4.326a1.903 1.903 0 0 1 2.68 0l4.336 4.31c.592.589 1.395.92 2.233.92h1.512c.25 0 .451.2.451.448a.45.45 0 0 1-.45.449h-1.514a4.07 4.07 0 0 1-2.87-1.182z" clip-rule="evenodd"/><path d="M19.165 69.59a3.49 3.49 0 0 1-2.473-1.018l-3.57-3.549a.68.68 0 0 0-.938 0L8.6 68.585a3.49 3.49 0 0 1-2.473 1.018h-.703l4.521 4.494a3.63 3.63 0 0 0 5.114 0l4.534-4.507zM6.128 57.037c.934 0 1.812.361 2.473 1.018l3.583 3.562c.258.257.68.258.938 0l3.57-3.55a3.49 3.49 0 0 1 2.472-1.017h.43l-4.534-4.507a3.63 3.63 0 0 0-5.114 0l-4.521 4.494z"/><path d="m23.346 60.778-2.74-2.723a.5.5 0 0 1-.195.038h-1.246a2.47 2.47 0 0 0-1.73.713l-3.57 3.549a1.72 1.72 0 0 1-1.212.498c-.439 0-.877-.166-1.211-.498l-3.584-3.562a2.47 2.47 0 0 0-1.73-.712H4.598a.5.5 0 0 1-.184-.037l-2.751 2.734a3.58 3.58 0 0 0 0 5.084l2.75 2.734a.5.5 0 0 1 .185-.037h1.532a2.47 2.47 0 0 0 1.73-.712l3.583-3.562c.647-.643 1.776-.643 2.423 0l3.57 3.549a2.47 2.47 0 0 0 1.73.712h1.246q.104.001.194.04l2.74-2.724a3.58 3.58 0 0 0 0-5.084M33.977 72.23c-.202 0-.437.048-.67.102v.887c.161.059.345.087.522.087.447 0 .66-.15.66-.542 0-.369-.174-.534-.512-.534m-.821 1.648v-1.755h.123l.012.076c.208-.048.494-.111.699-.111.166 0 .325.025.458.132.153.124.202.325.202.544 0 .229-.077.445-.287.564a1.1 1.1 0 0 1-.519.115c-.182 0-.355-.028-.537-.081v.516zM35.775 72.225c-.447 0-.647.14-.647.531 0 .38.197.55.647.55.446 0 .645-.138.645-.53 0-.378-.197-.551-.645-.551m.576 1.08c-.148.107-.348.138-.576.138-.232 0-.432-.033-.578-.137-.164-.115-.23-.303-.23-.54 0-.234.066-.424.23-.541.146-.104.346-.137.578-.137.23 0 .428.033.576.137.166.117.23.308.23.539 0 .237-.066.427-.23.542M38.468 73.408l-.499-1.066h-.01l-.491 1.066h-.136l-.532-1.285h.167l.442 1.078h.01l.481-1.078h.139l.493 1.078h.01l.433-1.078h.161l-.532 1.285zM40.1 72.222c-.415 0-.555.183-.581.448h1.162c-.013-.293-.164-.448-.581-.448m-.005 1.22c-.249 0-.41-.035-.538-.142-.15-.13-.202-.317-.202-.533 0-.206.07-.425.24-.55.144-.099.32-.13.505-.13.166 0 .358.018.517.125.186.125.222.344.222.593h-1.325c.005.264.092.498.593.498.239 0 .461-.038.668-.074v.135a4 4 0 0 1-.68.079M41.275 73.407v-1.284h.123l.013.076c.273-.068.401-.111.642-.111h.018v.142h-.036c-.202 0-.325.028-.609.102v1.075zM42.947 72.222c-.415 0-.556.183-.581.448h1.162c-.013-.293-.164-.448-.581-.448m-.005 1.22c-.249 0-.41-.035-.538-.142-.15-.13-.202-.317-.202-.533 0-.206.07-.425.24-.55.144-.099.32-.13.505-.13.166 0 .358.018.516.125.187.125.223.344.223.593h-1.325c.005.264.092.498.593.498.238 0 .46-.038.668-.074v.135a4 4 0 0 1-.68.079M45.34 72.312a1.6 1.6 0 0 0-.521-.087c-.448 0-.66.15-.66.542 0 .37.174.534.511.534.203 0 .438-.049.67-.1zm.029 1.095-.013-.076c-.207.048-.494.112-.698.112-.166 0-.325-.023-.458-.132-.154-.125-.202-.326-.202-.544 0-.23.076-.445.286-.562.146-.084.343-.117.522-.117.18 0 .353.03.535.081v-.587h.15v1.825zM47.704 72.23a3.2 3.2 0 0 0-.67.101v.885c.163.06.345.09.521.09.448 0 .66-.151.66-.543 0-.368-.174-.534-.511-.534m.386 1.098a1.1 1.1 0 0 1-.52.114q-.286 0-.578-.096l-.007.06h-.103v-1.825h.151v.612c.208-.045.486-.106.683-.106.167 0 .325.025.458.132.154.125.203.326.203.544 0 .23-.077.445-.287.565M48.577 73.9v-.14c.074.007.143.013.191.013.187 0 .3-.054.405-.265l.048-.102-.675-1.284h.174l.578 1.109h.01l.55-1.109h.172l-.727 1.442c-.133.262-.276.349-.54.349q-.09 0-.186-.013M52.112 72.675h-.502v.45h.504c.346 0 .476-.038.476-.227 0-.2-.179-.223-.478-.223m-.092-.73h-.41v.457h.412c.34 0 .476-.04.476-.231 0-.203-.171-.226-.478-.226m.777 1.34c-.184.117-.407.122-.813.122h-.765v-1.742h.747c.35 0 .565.005.744.112.128.076.18.193.18.346 0 .183-.077.305-.277.386v.01c.225.052.371.166.371.412 0 .168-.061.278-.187.354M54.513 72.868a5 5 0 0 0-.465-.02c-.264 0-.356.053-.356.173 0 .112.077.173.279.173.169 0 .37-.038.542-.077zm.077.54-.01-.077c-.22.054-.476.112-.701.112-.139 0-.287-.018-.392-.094-.097-.069-.143-.18-.143-.31 0-.145.064-.28.218-.349.135-.063.317-.068.483-.068.136 0 .317.007.468.017v-.022c0-.201-.133-.267-.496-.267-.14 0-.312.007-.476.022v-.26a7 7 0 0 1 .555-.024c.225 0 .458.017.602.119.148.104.176.25.176.44v.76zM56.562 73.407v-.71c0-.233-.12-.317-.336-.317-.158 0-.358.04-.527.081v.946h-.36v-1.284h.294l.013.081c.227-.058.48-.116.69-.116.159 0 .32.022.443.132.102.091.14.218.14.402v.785zM57.937 73.443c-.166 0-.348-.023-.481-.135-.159-.127-.205-.328-.205-.544 0-.203.067-.425.264-.55.161-.104.36-.126.568-.126.148 0 .294.01.455.025v.275a5 5 0 0 0-.412-.023c-.343 0-.504.107-.504.402 0 .277.12.396.402.396.163 0 .356-.03.542-.066v.265c-.202.04-.422.08-.63.08M59.633 72.357c-.343 0-.494.107-.494.4 0 .292.148.417.494.417.34 0 .488-.105.488-.397s-.146-.42-.488-.42m.619.951c-.159.107-.366.135-.62.135-.258 0-.465-.03-.621-.135-.18-.117-.243-.31-.243-.541s.064-.428.243-.545c.156-.104.363-.134.622-.134.256 0 .46.03.619.134.179.117.24.313.24.542 0 .232-.064.427-.24.544M62.576 73.443c-.218 0-.453-.036-.63-.18-.21-.174-.273-.44-.273-.728 0-.257.082-.562.355-.74.213-.138.476-.166.742-.166.195 0 .394.013.612.031v.313a8 8 0 0 0-.596-.028c-.5 0-.712.188-.712.59 0 .41.197.592.566.592.24 0 .509-.048.78-.104v.31c-.271.054-.555.11-.844.11M64.48 72.316c-.3 0-.414.107-.437.303h.87c-.01-.208-.133-.303-.433-.303m-.054 1.127c-.212 0-.404-.025-.547-.143-.154-.126-.207-.317-.207-.536 0-.196.064-.414.243-.542.158-.112.36-.134.565-.134.184 0 .402.02.56.13.208.144.226.368.228.632H64.04c.008.196.113.324.476.324.225 0 .476-.034.688-.067v.252c-.248.04-.52.084-.778.084M66.873 73.407v-.71c0-.233-.12-.317-.335-.317-.159 0-.358.04-.527.081v.946h-.361v-1.284h.294l.013.081c.228-.058.48-.116.69-.116.16 0 .32.022.443.132.102.091.141.218.141.402v.785zM68.258 73.443c-.174 0-.333-.049-.42-.183-.064-.092-.095-.216-.095-.39v-.48h-.26v-.267h.26l.039-.39h.32v.39h.509v.267h-.51v.412c0 .099.008.183.036.244.039.086.123.12.236.12.084 0 .187-.013.258-.026v.257a2 2 0 0 1-.373.046M68.961 73.407v-1.284h.295l.013.081c.237-.066.414-.116.64-.116q.015 0 .045.002v.305c-.04-.002-.09-.002-.125-.002-.177 0-.31.02-.507.066v.948zM71.265 72.868a5 5 0 0 0-.466-.02c-.263 0-.356.053-.356.173 0 .112.078.173.28.173.168 0 .37-.038.542-.077zm.077.54-.01-.077c-.22.054-.476.112-.702.112-.138 0-.286-.018-.391-.094-.097-.069-.143-.18-.143-.31 0-.145.064-.28.217-.349.136-.063.317-.068.484-.068.135 0 .317.007.468.017v-.022c0-.201-.133-.267-.496-.267-.141 0-.313.007-.476.022v-.26c.181-.014.386-.024.555-.024.225 0 .458.017.601.119.148.104.177.25.177.44v.76zM72.092 71.582h.361v1.825h-.36z"/></g></g><defs><clipPath id="a"><path fill="#fff" d="M0 49.759h73v25.39H0z"/></clipPath></defs></svg>