<svg xmlns="http://www.w3.org/2000/svg" width="104" height="37" fill="none"><g clip-path="url(#a)"><path fill="#D9D9D9" fill-rule="evenodd" d="M13.186.759C7.134.759 2.229 5.61 2.229 11.595V24.27h21.914V11.595C24.143 5.61 19.237.76 13.186.76m0 3.306c-4 0-7.243 3.207-7.243 7.163v8.633h14.486v-8.633c0-3.956-3.243-7.163-7.243-7.163" clip-rule="evenodd"/><path fill="#926BFF" d="M0 16.187c0-.609.499-1.102 1.114-1.102h23.772c.615 0 1.114.493 1.114 1.102v7.714c0 7.101-5.82 12.858-13 12.858S0 31.002 0 23.9z"/><path fill="#fff" d="m10.955 28.988-4.44-4.384a.67.67 0 0 1 0-.954l.966-.954a.69.69 0 0 1 .966 0l2.992 2.953 6.407-6.326a.69.69 0 0 1 .967 0l.966.954a.67.67 0 0 1 0 .954l-7.857 7.757a.69.69 0 0 1-.967 0M34.677 20.556q-1.407 0-2.731-.369-1.306-.386-2.104-.99l.933-2.047q.764.555 1.816.89a6.9 6.9 0 0 0 2.103.335q1.17 0 1.73-.335.56-.353.56-.923a.84.84 0 0 0-.339-.688q-.322-.285-.848-.453-.51-.168-1.391-.37-1.358-.319-2.223-.637a3.7 3.7 0 0 1-1.493-1.024q-.61-.705-.61-1.879 0-1.024.56-1.846.56-.838 1.679-1.325 1.137-.487 2.765-.487 1.138 0 2.223.269a6.6 6.6 0 0 1 1.9.772l-.848 2.063q-1.646-.923-3.291-.923-1.154 0-1.714.37-.543.369-.543.973t.628.906q.645.285 1.95.57 1.358.32 2.223.638a3.6 3.6 0 0 1 1.477 1.007q.627.688.627 1.862 0 1.008-.577 1.846-.56.822-1.696 1.309-1.137.486-2.766.486M50.79 18.174v2.181h-9.196V8.61h8.975v2.18h-6.244v2.551h5.514v2.115h-5.514v2.718zM60.968 14.298h2.51v4.765a7.2 7.2 0 0 1-2.238 1.108 8.8 8.8 0 0 1-2.562.385q-1.85 0-3.326-.771a6 6 0 0 1-2.324-2.165q-.831-1.392-.831-3.138t.831-3.12a5.8 5.8 0 0 1 2.341-2.165q1.493-.789 3.36-.789 1.56 0 2.833.52 1.271.52 2.138 1.51l-1.765 1.611q-1.273-1.325-3.07-1.325-1.137 0-2.02.47a3.4 3.4 0 0 0-1.374 1.325q-.492.855-.492 1.963 0 1.09.492 1.947a3.54 3.54 0 0 0 1.358 1.342q.881.47 2.001.47 1.188 0 2.138-.503zM71.308 20.556q-2.544 0-3.97-1.392-1.407-1.393-1.408-3.977V8.61h2.749v6.476q0 3.155 2.646 3.155 1.29 0 1.968-.755.68-.772.68-2.4V8.61h2.714v6.577q0 2.584-1.426 3.977-1.407 1.392-3.953 1.392M86.97 20.355l-2.29-3.272H82.15v3.272h-2.748V8.61h5.14q1.578 0 2.732.52 1.17.52 1.798 1.476.628.957.628 2.265 0 1.31-.645 2.266-.627.939-1.798 1.443l2.663 3.775zm-.052-7.484q0-.99-.644-1.51-.645-.537-1.883-.537h-2.24v4.095h2.24q1.238 0 1.883-.537t.644-1.51M97.63 20.556q-1.85 0-3.343-.788a6 6 0 0 1-2.324-2.165q-.831-1.393-.831-3.12 0-1.73.831-3.105a5.95 5.95 0 0 1 2.325-2.181q1.492-.789 3.342-.789t3.325.789a5.94 5.94 0 0 1 2.324 2.181q.849 1.376.849 3.104t-.849 3.121a6 6 0 0 1-2.324 2.165q-1.476.788-3.325.788m0-2.315q1.051 0 1.9-.47a3.45 3.45 0 0 0 1.323-1.342q.492-.856.492-1.947 0-1.09-.492-1.946a3.33 3.33 0 0 0-1.323-1.326 3.75 3.75 0 0 0-1.9-.486 3.75 3.75 0 0 0-1.9.486 3.45 3.45 0 0 0-1.34 1.326q-.476.856-.476 1.946t.475 1.947a3.57 3.57 0 0 0 1.34 1.342q.85.47 1.9.47"/><path fill="#926BFF" d="M102.886 23.534H30.829c-.616 0-1.115.494-1.115 1.102v8.082c0 .608.5 1.102 1.115 1.102h72.057c.615 0 1.114-.494 1.114-1.102v-8.082c0-.608-.499-1.102-1.114-1.102"/><path fill="#0F0D2A" d="M36.675 30.635a2.9 2.9 0 0 1-1.282-.282 2.3 2.3 0 0 1-.898-.79 2.1 2.1 0 0 1-.324-1.146q0-.638.324-1.14.33-.51.898-.79a2.8 2.8 0 0 1 1.288-.289q.601 0 1.084.196.487.197.819.564l-.688.589a1.53 1.53 0 0 0-1.162-.503q-.429 0-.766.178-.337.17-.528.484a1.37 1.37 0 0 0-.185.71q0 .399.185.711.19.313.528.49.336.172.766.172.694 0 1.162-.508l.688.588q-.33.375-.82.57-.488.196-1.09.196M42.886 29.765v.796h-3.58v-4.29H42.8v.797h-2.43V28h2.146v.772H40.37v.993zM46.683 30.561l-.892-1.195h-.984v1.195h-1.07v-4.29h2.002q.615 0 1.063.19.456.191.7.54.245.35.245.827 0 .478-.251.828a1.54 1.54 0 0 1-.7.527l1.037 1.378zm-.02-2.733q0-.36-.25-.551-.251-.195-.734-.196h-.872v1.495h.872q.483 0 .734-.196.25-.196.25-.552M49.488 27.08h-1.48v-.808h4.03v.809h-1.48v3.48h-1.07zM52.613 26.272h1.07v4.29h-1.07zM55.85 27.069v1.133h2.14V29h-2.14v1.562h-1.07v-4.29h3.494v.797zM58.998 26.272h1.07v4.29h-1.07zM63.379 30.635a2.9 2.9 0 0 1-1.282-.282 2.3 2.3 0 0 1-.898-.79 2.1 2.1 0 0 1-.324-1.146q0-.638.324-1.14.33-.51.898-.79a2.8 2.8 0 0 1 1.288-.289q.6 0 1.083.196.49.197.82.564l-.688.589a1.53 1.53 0 0 0-1.162-.503q-.43 0-.766.178-.336.17-.529.484a1.37 1.37 0 0 0-.185.71q0 .399.185.711.192.313.529.49.336.172.766.172.694 0 1.162-.508l.687.588q-.33.375-.819.57-.489.196-1.09.196M68.965 29.642h-2.147l-.41.92h-1.096l2.06-4.29h1.058l2.067 4.29h-1.123zm-.337-.754-.734-1.642-.733 1.642zM73.125 30.635a2.9 2.9 0 0 1-1.281-.282 2.3 2.3 0 0 1-.899-.79 2.1 2.1 0 0 1-.323-1.146q0-.638.323-1.14.33-.51.899-.79a2.8 2.8 0 0 1 1.287-.289q.601 0 1.084.196.488.197.819.564l-.687.589a1.53 1.53 0 0 0-1.163-.503q-.429 0-.766.178-.337.17-.528.484a1.37 1.37 0 0 0-.185.71q0 .399.185.711.19.313.528.49.337.172.766.172.693 0 1.163-.508l.687.588q-.33.375-.82.57-.488.196-1.089.196m-.357 1.348q-.172 0-.337-.037a1 1 0 0 1-.277-.092l.158-.41q.211.092.43.092.343 0 .343-.196 0-.178-.323-.178h-.225l.172-.65h.548l-.093.356q.29.03.43.165a.46.46 0 0 1 .145.343q0 .282-.264.442-.264.165-.707.165M78.71 29.642h-2.146l-.41.92h-1.096l2.06-4.29h1.058l2.067 4.29H79.12zm-.336-.754-.733-1.642-.733 1.642zm-.231-2.947a.8.8 0 0 1-.317-.061 3 3 0 0 1-.297-.178 2 2 0 0 0-.179-.11.294.294 0 0 0-.357.055q-.086.085-.092.251h-.522q.014-.41.218-.65a.7.7 0 0 1 .555-.245.66.66 0 0 1 .304.068q.138.06.31.177.106.075.172.11a.3.3 0 0 0 .139.038q.131 0 .218-.086a.35.35 0 0 0 .099-.245h.521q-.012.398-.224.637a.69.69 0 0 1-.548.239M82.898 30.635q-.72 0-1.302-.288a2.3 2.3 0 0 1-.905-.79 2.1 2.1 0 0 1-.323-1.14q0-.631.323-1.134.33-.51.905-.797a2.9 2.9 0 0 1 1.302-.288q.72 0 1.294.288t.905.797q.33.503.33 1.134t-.33 1.14a2.3 2.3 0 0 1-.905.79 2.85 2.85 0 0 1-1.294.288m0-.846q.41 0 .74-.171.33-.178.514-.49.192-.314.192-.711 0-.399-.192-.711a1.26 1.26 0 0 0-.515-.484 1.53 1.53 0 0 0-.74-.178q-.408 0-.74.178-.33.17-.521.484a1.37 1.37 0 0 0-.185.71q0 .399.185.711.192.313.522.49.33.172.74.172M89.621 30.635a4.2 4.2 0 0 1-1.063-.135 2.6 2.6 0 0 1-.82-.361l.364-.748q.297.202.706.325.41.122.82.122.455 0 .673-.122.218-.129.218-.337a.3.3 0 0 0-.132-.252.9.9 0 0 0-.33-.165 7 7 0 0 0-.542-.135 8 8 0 0 1-.865-.233 1.44 1.44 0 0 1-.581-.373q-.238-.257-.238-.687 0-.374.218-.674.218-.307.654-.484.443-.178 1.076-.178.444 0 .866.098.422.099.74.282l-.33.754a2.7 2.7 0 0 0-1.282-.337q-.45 0-.667.135-.212.135-.212.355 0 .221.245.331.25.105.76.208.528.117.865.233t.574.368q.245.251.245.68 0 .368-.225.674-.218.3-.66.478t-1.077.178M93.833 30.635a4.2 4.2 0 0 1-1.063-.135 2.6 2.6 0 0 1-.82-.361l.364-.748q.297.202.707.325.409.122.819.122.455 0 .673-.122.218-.129.218-.337a.3.3 0 0 0-.132-.252.9.9 0 0 0-.33-.165 7 7 0 0 0-.542-.135 8 8 0 0 1-.865-.233 1.44 1.44 0 0 1-.581-.373q-.238-.257-.238-.687 0-.374.218-.674.217-.307.654-.484.443-.178 1.076-.178.444 0 .866.098.422.099.74.282l-.33.754a2.7 2.7 0 0 0-1.282-.337q-.45 0-.667.135-.212.135-.212.355 0 .221.245.331.25.105.76.208.528.117.865.233t.574.368q.245.251.245.68 0 .368-.225.674-.218.3-.66.478t-1.077.178M96.526 26.272h1.07v3.48h2.318v.81h-3.388z"/></g><defs><clipPath id="a"><path fill="#fff" d="M0 .759h104v36H0z"/></clipPath></defs></svg>