<svg width="18" height="18" viewBox="0 0 18 18" fill="none" xmlns="http://www.w3.org/2000/svg">
<path opacity="0.8" fill-rule="evenodd" clip-rule="evenodd" d="M1.30005 8.3002C1.30005 10.5957 2.51494 12.6165 4.37919 13.8904C4.37834 14.6219 4.38005 15.6075 4.38005 16.6419L7.40102 15.1472C7.91777 15.2465 8.45164 15.3004 9.00005 15.3004C13.2368 15.3004 16.7 12.1836 16.7 8.3002C16.7 4.41684 13.2368 1.30005 9.00005 1.30005C4.76334 1.30005 1.30005 4.41684 1.30005 8.3002Z" stroke="white" stroke-linecap="round" stroke-linejoin="round"/>
<path d="M8.91387 9.18703V9.00993C8.91387 8.42986 9.27235 8.11587 9.63169 7.87461C9.98246 7.63847 10.3341 7.33047 10.3341 6.76238C10.3341 5.97784 9.69842 5.34302 8.91473 5.34302C8.13104 5.34302 7.49451 5.97698 7.49451 6.76153" stroke="#926BFF" stroke-linecap="round" stroke-linejoin="round"/>
<path d="M8.91325 11.1888C8.84224 11.1888 8.78492 11.2462 8.78578 11.3172C8.78578 11.3882 8.8431 11.4455 8.91411 11.4455C8.98512 11.4455 9.04244 11.3882 9.04244 11.3172C9.04244 11.2462 8.98598 11.1888 8.91325 11.1888" stroke="#926BFF" stroke-linecap="round" stroke-linejoin="round"/>
</svg>
