<svg xmlns="http://www.w3.org/2000/svg" width="25" height="24" fill="none"><path stroke="#926BFF" stroke-linecap="round" stroke-linejoin="round" stroke-width="1.5" d="M14.6 4h-8a3 3 0 0 0-3 3v8a3 3 0 0 0 3 3h1.5v3l4.5-3h6a3 3 0 0 0 3-3v-5"/><path fill="#926BFF" fill-rule="evenodd" d="M21.013 6.414a2 2 0 1 1-2.828-2.828 2 2 0 0 1 2.828 2.828" clip-rule="evenodd"/><path stroke="#926BFF" stroke-linecap="round" stroke-linejoin="round" stroke-width="1.5" d="M21.013 6.414a2 2 0 1 1-2.828-2.828 2 2 0 0 1 2.828 2.828"/></svg>