<svg xmlns="http://www.w3.org/2000/svg" width="21" height="20" fill="none"><path fill="#F9F9FA" d="M14.649 4.55a1 1 0 1 0 0 2 1 1 0 0 0 0-2m3.833 2.017a6.3 6.3 0 0 0-.383-2.025 4.1 4.1 0 0 0-.967-1.475 3.9 3.9 0 0 0-1.475-.959 6.1 6.1 0 0 0-2.025-.391c-.883-.05-1.167-.05-3.433-.05s-2.55 0-3.434.05a6.1 6.1 0 0 0-2.025.391 4 4 0 0 0-1.475.959 3.9 3.9 0 0 0-.958 1.475 6.1 6.1 0 0 0-.392 2.025c-.05.883-.05 1.166-.05 3.433s0 2.55.05 3.433c.015.693.147 1.378.392 2.025.203.558.531 1.063.958 1.475.414.426.918.753 1.475.959a6.1 6.1 0 0 0 2.025.391c.884.05 1.167.05 3.434.05 2.266 0 2.55 0 3.433-.05a6.1 6.1 0 0 0 2.025-.391 3.9 3.9 0 0 0 1.475-.959c.427-.414.757-.918.967-1.475.237-.65.367-1.333.383-2.025 0-.883.05-1.166.05-3.433s0-2.55-.05-3.433m-1.5 6.766a4.7 4.7 0 0 1-.283 1.55 2.55 2.55 0 0 1-.625.959c-.27.275-.598.488-.959.625a4.7 4.7 0 0 1-1.55.283c-.833.042-1.141.05-3.333.05s-2.5 0-3.333-.05a4.8 4.8 0 0 1-1.617-.25 2.7 2.7 0 0 1-.917-.625 2.5 2.5 0 0 1-.616-.958 4.6 4.6 0 0 1-.334-1.584c0-.833-.05-1.141-.05-3.333s0-2.5.05-3.333c.004-.541.103-1.077.292-1.584a2.5 2.5 0 0 1 .658-.916c.253-.287.566-.514.917-.667a4.8 4.8 0 0 1 1.583-.283c.834 0 1.142-.05 3.334-.05 2.191 0 2.5 0 3.333.05a4.7 4.7 0 0 1 1.55.283c.379.14.718.37.992.667.273.256.486.569.625.916.185.508.28 1.044.283 1.584.042.833.05 1.141.05 3.333s-.008 2.5-.05 3.333m-6.783-7.608A4.275 4.275 0 1 0 14.482 10a4.266 4.266 0 0 0-4.283-4.275m0 7.05a2.775 2.775 0 1 1 0-5.55 2.775 2.775 0 0 1 0 5.55"/></svg>