<svg xmlns="http://www.w3.org/2000/svg" width="24" height="24" fill="none"><path fill="#C3C3CF" fill-rule="evenodd" d="M7 11v8a1 1 0 0 1-1 1H4a1 1 0 0 1-1-1v-7a1 1 0 0 1 1-1za4 4 0 0 0 4-4V6a2 2 0 1 1 4 0v5h3a2 2 0 0 1 2 2l-1 5c-.295 1.26-1.11 2.076-2 2h-7a3 3 0 0 1-3-3" clip-rule="evenodd"/><path stroke="#E0E0E6" stroke-linecap="round" stroke-linejoin="round" stroke-width="1.5" d="M7 11v8a1 1 0 0 1-1 1H4a1 1 0 0 1-1-1v-7a1 1 0 0 1 1-1za4 4 0 0 0 4-4V6a2 2 0 1 1 4 0v5h3a2 2 0 0 1 2 2l-1 5c-.295 1.26-1.11 2.076-2 2h-7a3 3 0 0 1-3-3"/></svg>