<svg xmlns="http://www.w3.org/2000/svg" width="25" height="24" fill="none"><path fill="#926BFF" d="M6.95 12.5v-.75zM3.2 16.254h-.75zm3.753 3.75v.75zm3.75-3.752h.75zm-1.1-2.653.53-.531zm4.096 2.655h-.75zm3.752 3.75v.75zm3.75-3.752h.75zm-1.1-2.653.53-.531zM12.2 3.42v-.75zM8.45 7.174H7.7zm3.753 3.75v.75zm3.75-3.752h.75zm-1.1-2.653-.53.53zM6.95 11.75a4.5 4.5 0 0 0-4.498 4.504h1.5a3 3 0 0 1 3-3.004zm-4.498 4.504a4.5 4.5 0 0 0 4.503 4.5v-1.5a3 3 0 0 1-3.003-3zm4.503 4.5c2.486-.001 4.5-2.016 4.5-4.502h-1.5a3 3 0 0 1-3 3.002zm4.5-4.502c0-1.195-.475-2.34-1.32-3.184l-1.06 1.061c.563.563.88 1.327.88 2.123zm-1.32-3.184A4.5 4.5 0 0 0 6.95 11.75l.001 1.5c.797 0 1.56.316 2.124.879zm7.314-1.318a4.5 4.5 0 0 0-4.498 4.504h1.5a3 3 0 0 1 2.999-3.004zm-4.498 4.504a4.5 4.5 0 0 0 4.502 4.5v-1.5a3 3 0 0 1-3.003-3zm4.502 4.5c2.486-.001 4.5-2.016 4.5-4.502h-1.5a3 3 0 0 1-3 3.002zm4.5-4.502c0-1.195-.475-2.34-1.32-3.184l-1.06 1.061c.564.563.88 1.327.88 2.123zm-1.32-3.184a4.5 4.5 0 0 0-3.184-1.318v1.5c.797 0 1.561.316 2.124.879zM12.199 2.67A4.5 4.5 0 0 0 7.7 7.175l1.5-.001a3 3 0 0 1 3-3.003zM7.7 7.175a4.5 4.5 0 0 0 4.503 4.499v-1.5a3 3 0 0 1-3.003-3zm4.503 4.499c2.486 0 4.5-2.016 4.5-4.502h-1.5a3 3 0 0 1-3 3.002zm4.5-4.502c0-1.194-.475-2.34-1.32-3.184l-1.06 1.061c.564.563.88 1.327.88 2.123zm-1.32-3.184A4.5 4.5 0 0 0 12.2 2.671v1.5c.797 0 1.56.315 2.124.878z"/></svg>