<svg xmlns="http://www.w3.org/2000/svg" width="21" height="20" fill="none"><path fill="#F9F9FA" d="m8.532 12.5 4.325-2.5-4.325-2.5zm9.633-6.525c.109.392.184.917.234 1.583.058.667.083 1.242.083 1.742l.05.7c0 1.825-.133 3.167-.367 4.025q-.314 1.127-1.441 1.442c-.392.108-1.109.183-2.209.233a56 56 0 0 1-2.991.083l-1.325.05c-3.492 0-5.667-.133-6.525-.366-.75-.209-1.234-.692-1.442-1.442-.108-.392-.183-.917-.233-1.583a20 20 0 0 1-.084-1.742l-.05-.7c0-1.825.134-3.167.367-4.025.208-.75.692-1.233 1.442-1.442.391-.108 1.108-.183 2.208-.233a56 56 0 0 1 2.992-.083l1.325-.05c3.491 0 5.666.133 6.525.366.75.209 1.233.692 1.441 1.442"/></svg>